<mxfile host="app.diagrams.net" modified="2020-09-13T16:26:24.770Z" agent="5.0 (X11)" etag="hqFemHo32db7ocQryCrk" version="13.6.10" type="github">
  <diagram id="K36OlwD840b-hRt8ZGE-" name="Page-1">
    <mxGraphModel dx="1021" dy="540" grid="1" gridSize="10" guides="1" tooltips="1" connect="1" arrows="1" fold="1" page="1" pageScale="1" pageWidth="827" pageHeight="1169" math="0" shadow="0">
      <root>
        <mxCell id="0" />
        <mxCell id="1" parent="0" />
        <mxCell id="kI4s2xlH85fYJv4vKrz8-18" style="edgeStyle=orthogonalEdgeStyle;rounded=0;orthogonalLoop=1;jettySize=auto;html=1;entryX=1;entryY=0.643;entryDx=0;entryDy=0;entryPerimeter=0;" edge="1" parent="1" source="kI4s2xlH85fYJv4vKrz8-15" target="kI4s2xlH85fYJv4vKrz8-2">
          <mxGeometry relative="1" as="geometry" />
        </mxCell>
        <mxCell id="kI4s2xlH85fYJv4vKrz8-1" value="ContaBancária" style="swimlane;fontStyle=1;align=center;verticalAlign=top;childLayout=stackLayout;horizontal=1;startSize=26;horizontalStack=0;resizeParent=1;resizeParentMax=0;resizeLast=0;collapsible=1;marginBottom=0;" vertex="1" parent="1">
          <mxGeometry x="164" y="103" width="250" height="170" as="geometry" />
        </mxCell>
        <mxCell id="kI4s2xlH85fYJv4vKrz8-2" value="- numero_conta: Inteiro&#xa;- senha_conta : String&#xa;- saldo: Long Float&#xa;&#xa;&#xa;" style="text;strokeColor=none;fillColor=none;align=left;verticalAlign=top;spacingLeft=4;spacingRight=4;overflow=hidden;rotatable=0;points=[[0,0.5],[1,0.5]];portConstraint=eastwest;" vertex="1" parent="kI4s2xlH85fYJv4vKrz8-1">
          <mxGeometry y="26" width="250" height="84" as="geometry" />
        </mxCell>
        <mxCell id="kI4s2xlH85fYJv4vKrz8-3" value="" style="line;strokeWidth=1;fillColor=none;align=left;verticalAlign=middle;spacingTop=-1;spacingLeft=3;spacingRight=3;rotatable=0;labelPosition=right;points=[];portConstraint=eastwest;" vertex="1" parent="kI4s2xlH85fYJv4vKrz8-1">
          <mxGeometry y="110" width="250" height="8" as="geometry" />
        </mxCell>
        <mxCell id="kI4s2xlH85fYJv4vKrz8-4" value="+ getSaldo(): Long Float&#xa;+ resetarSenha():&#xa;" style="text;strokeColor=none;fillColor=none;align=left;verticalAlign=top;spacingLeft=4;spacingRight=4;overflow=hidden;rotatable=0;points=[[0,0.5],[1,0.5]];portConstraint=eastwest;" vertex="1" parent="kI4s2xlH85fYJv4vKrz8-1">
          <mxGeometry y="118" width="250" height="52" as="geometry" />
        </mxCell>
        <mxCell id="kI4s2xlH85fYJv4vKrz8-14" value="Cliente" style="swimlane;fontStyle=1;align=center;verticalAlign=top;childLayout=stackLayout;horizontal=1;startSize=26;horizontalStack=0;resizeParent=1;resizeParentMax=0;resizeLast=0;collapsible=1;marginBottom=0;" vertex="1" parent="1">
          <mxGeometry x="640" y="115" width="200" height="144" as="geometry" />
        </mxCell>
        <mxCell id="kI4s2xlH85fYJv4vKrz8-15" value="- nome: String&#xa;- CPF: Inteiro&#xa;- contas[ ]: Array ContaBancária&#xa;" style="text;strokeColor=none;fillColor=none;align=left;verticalAlign=top;spacingLeft=4;spacingRight=4;overflow=hidden;rotatable=0;points=[[0,0.5],[1,0.5]];portConstraint=eastwest;" vertex="1" parent="kI4s2xlH85fYJv4vKrz8-14">
          <mxGeometry y="26" width="200" height="84" as="geometry" />
        </mxCell>
        <mxCell id="kI4s2xlH85fYJv4vKrz8-16" value="" style="line;strokeWidth=1;fillColor=none;align=left;verticalAlign=middle;spacingTop=-1;spacingLeft=3;spacingRight=3;rotatable=0;labelPosition=right;points=[];portConstraint=eastwest;" vertex="1" parent="kI4s2xlH85fYJv4vKrz8-14">
          <mxGeometry y="110" width="200" height="8" as="geometry" />
        </mxCell>
        <mxCell id="kI4s2xlH85fYJv4vKrz8-17" value="+ method(type): type" style="text;strokeColor=none;fillColor=none;align=left;verticalAlign=top;spacingLeft=4;spacingRight=4;overflow=hidden;rotatable=0;points=[[0,0.5],[1,0.5]];portConstraint=eastwest;" vertex="1" parent="kI4s2xlH85fYJv4vKrz8-14">
          <mxGeometry y="118" width="200" height="26" as="geometry" />
        </mxCell>
        <mxCell id="kI4s2xlH85fYJv4vKrz8-6" value="ContaPoupança" style="swimlane;fontStyle=1;align=center;verticalAlign=top;childLayout=stackLayout;horizontal=1;startSize=26;horizontalStack=0;resizeParent=1;resizeParentMax=0;resizeLast=0;collapsible=1;marginBottom=0;" vertex="1" parent="1">
          <mxGeometry x="50" y="350" width="160" height="100" as="geometry" />
        </mxCell>
        <mxCell id="kI4s2xlH85fYJv4vKrz8-7" value="- tipo_conta: Inteiro" style="text;strokeColor=none;fillColor=none;align=left;verticalAlign=top;spacingLeft=4;spacingRight=4;overflow=hidden;rotatable=0;points=[[0,0.5],[1,0.5]];portConstraint=eastwest;" vertex="1" parent="kI4s2xlH85fYJv4vKrz8-6">
          <mxGeometry y="26" width="160" height="26" as="geometry" />
        </mxCell>
        <mxCell id="kI4s2xlH85fYJv4vKrz8-8" value="" style="line;strokeWidth=1;fillColor=none;align=left;verticalAlign=middle;spacingTop=-1;spacingLeft=3;spacingRight=3;rotatable=0;labelPosition=right;points=[];portConstraint=eastwest;" vertex="1" parent="kI4s2xlH85fYJv4vKrz8-6">
          <mxGeometry y="52" width="160" height="8" as="geometry" />
        </mxCell>
        <mxCell id="kI4s2xlH85fYJv4vKrz8-9" value="&#xa;+ getTipoConta(): Inteiro" style="text;strokeColor=none;fillColor=none;align=left;verticalAlign=top;spacingLeft=4;spacingRight=4;overflow=hidden;rotatable=0;points=[[0,0.5],[1,0.5]];portConstraint=eastwest;" vertex="1" parent="kI4s2xlH85fYJv4vKrz8-6">
          <mxGeometry y="60" width="160" height="40" as="geometry" />
        </mxCell>
        <mxCell id="kI4s2xlH85fYJv4vKrz8-10" value="ContaSalário" style="swimlane;fontStyle=1;align=center;verticalAlign=top;childLayout=stackLayout;horizontal=1;startSize=26;horizontalStack=0;resizeParent=1;resizeParentMax=0;resizeLast=0;collapsible=1;marginBottom=0;" vertex="1" parent="1">
          <mxGeometry x="470" y="350" width="160" height="70" as="geometry" />
        </mxCell>
        <mxCell id="kI4s2xlH85fYJv4vKrz8-11" value="- tipo_conta: Inteiro" style="text;strokeColor=none;fillColor=none;align=left;verticalAlign=top;spacingLeft=4;spacingRight=4;overflow=hidden;rotatable=0;points=[[0,0.5],[1,0.5]];portConstraint=eastwest;" vertex="1" parent="kI4s2xlH85fYJv4vKrz8-10">
          <mxGeometry y="26" width="160" height="26" as="geometry" />
        </mxCell>
        <mxCell id="kI4s2xlH85fYJv4vKrz8-12" value="" style="line;strokeWidth=1;fillColor=none;align=left;verticalAlign=middle;spacingTop=-1;spacingLeft=3;spacingRight=3;rotatable=0;labelPosition=right;points=[];portConstraint=eastwest;" vertex="1" parent="kI4s2xlH85fYJv4vKrz8-10">
          <mxGeometry y="52" width="160" height="8" as="geometry" />
        </mxCell>
        <mxCell id="kI4s2xlH85fYJv4vKrz8-13" value="&#xa;+ getTipoConta(): Inteiro" style="text;strokeColor=none;fillColor=none;align=left;verticalAlign=top;spacingLeft=4;spacingRight=4;overflow=hidden;rotatable=0;points=[[0,0.5],[1,0.5]];portConstraint=eastwest;" vertex="1" parent="kI4s2xlH85fYJv4vKrz8-10">
          <mxGeometry y="60" width="160" height="10" as="geometry" />
        </mxCell>
        <mxCell id="kI4s2xlH85fYJv4vKrz8-19" value="&lt;g style=&quot;cursor: n-resize; visibility: visible;&quot;&gt;&lt;image x=&quot;969&quot; y=&quot;790&quot; width=&quot;18&quot; height=&quot;18&quot; xlink:href=&quot;data:image/svg+xml;base64,PCFET0NUWVBFIHN2ZyBQVUJMSUMgIi0vL1czQy8vRFREIFNWRyAxLjEvL0VOIiAiaHR0cDovL3d3dy53My5vcmcvR3JhcGhpY3MvU1ZHLzEuMS9EVEQvc3ZnMTEuZHRkIj48c3ZnIHhtbG5zPSJodHRwOi8vd3d3LnczLm9yZy8yMDAwL3N2ZyIgeG1sbnM6eGxpbms9Imh0dHA6Ly93d3cudzMub3JnLzE5OTkveGxpbmsiIHdpZHRoPSIxOHB4IiBoZWlnaHQ9IjE4cHgiIHZlcnNpb249IjEuMSI+PGNpcmNsZSBjeD0iOSIgY3k9IjkiIHI9IjUiIHN0cm9rZT0iI2ZmZiIgZmlsbD0iIzI5YjZmMiIgc3Ryb2tlLXdpZHRoPSIxIi8+PC9zdmc+&quot; preserveAspectRatio=&quot;none&quot;&gt;&lt;/image&gt;&lt;/g&gt;" style="text;whiteSpace=wrap;html=1;" vertex="1" parent="1">
          <mxGeometry x="130" y="410" width="60" height="50" as="geometry" />
        </mxCell>
      </root>
    </mxGraphModel>
  </diagram>
</mxfile>
